<?xml version="1.0" encoding="UTF-8"?>
<svg id="Capa_1" xmlns="http://www.w3.org/2000/svg" version="1.1" viewBox="0 0 512 512">
  <!-- Generator: Adobe Illustrator 29.1.0, SVG Export Plug-In . SVG Version: 2.1.0 Build 142)  -->
  <defs>
    <style>
      .st0 {
        fill: #ffd900;
      }
    </style>
  </defs>
  <path class="st0" d="M496,80h-208v-48c0-4.8-2.1-9.3-5.8-12.3-3.6-3-8.5-4.4-13.2-3.4L13.1,64.3c-7.6,1.4-13.1,8-13.1,15.7v352c0,7.7,5.5,14.3,13.1,15.7l256,48c1,.2,2,.3,2.9.3,3.7,0,7.3-1.3,10.2-3.7,3.7-3,5.8-7.6,5.8-12.3v-48h208c8.8,0,16-7.2,16-16V96c0-8.8-7.2-16-16-16ZM220,309.5c5.8,6.6,5.2,16.7-1.5,22.6-3,2.7-6.8,4-10.5,4s-8.9-1.9-12-5.5l-46.5-53.2-40.8,52.5c-3.2,4-7.9,6.1-12.6,6.1s-6.9-1.1-9.8-3.4c-7-5.4-8.2-15.5-2.8-22.5l44.6-57.3-44-50.3c-5.8-6.6-5.2-16.7,1.5-22.6,6.6-5.8,16.7-5.2,22.6,1.5l39.9,45.6,47.4-60.9c5.4-6.9,15.5-8.2,22.5-2.8,7,5.4,8.2,15.5,2.8,22.5l-51.2,65.8,50.6,57.8ZM480,400h-192v-32h48c8.8,0,16-7.2,16-16s-7.2-16-16-16h-48v-32h48c8.8,0,16-7.2,16-16s-7.2-16-16-16h-48v-32h48c8.8,0,16-7.2,16-16s-7.2-16-16-16h-48v-32h48c8.8,0,16-7.2,16-16s-7.2-16-16-16h-48v-32h192v288Z"/>
  <path class="st0" d="M432,144h-32c-8.8,0-16,7.2-16,16s7.2,16,16,16h32c8.8,0,16-7.2,16-16s-7.2-16-16-16Z"/>
  <path class="st0" d="M432,208h-32c-8.8,0-16,7.2-16,16s7.2,16,16,16h32c8.8,0,16-7.2,16-16s-7.2-16-16-16Z"/>
  <path class="st0" d="M432,272h-32c-8.8,0-16,7.2-16,16s7.2,16,16,16h32c8.8,0,16-7.2,16-16s-7.2-16-16-16Z"/>
  <path class="st0" d="M432,336h-32c-8.8,0-16,7.2-16,16s7.2,16,16,16h32c8.8,0,16-7.2,16-16s-7.2-16-16-16Z"/>
</svg>