<?xml version="1.0" encoding="UTF-8"?>
<svg id="Capa_1" xmlns="http://www.w3.org/2000/svg" version="1.1" viewBox="0 0 512 512">
  <!-- Generator: Adobe Illustrator 29.1.0, SVG Export Plug-In . SVG Version: 2.1.0 Build 142)  -->
  <defs>
    <style>
      .st0 {
        fill: #ffd900;
      }
    </style>
  </defs>
  <path class="st0" d="M151.7,369.9c0,25.3,20.3,45.8,46.2,45.8s46.9-20.8,46.9-46.5v-45.1h-47.3c-25.3,0-45.8,20.5-45.8,45.8Z"/>
  <path class="st0" d="M151.8,142.1c0,25.2,20.5,45.8,45.8,45.8h47.3v-91.6h-47.3c-25.3,0-45.8,20.6-45.8,45.8Z"/>
  <path class="st0" d="M151.8,256c0,25.3,20.5,45.8,45.8,45.8h47.3v-91.6h-47.3c-25.3,0-45.8,20.6-45.8,45.8Z"/>
  <path class="st0" d="M314.4,210.2h-1.5c-25.3,0-45.8,20.5-45.8,45.8s20.5,45.8,45.8,45.8h1.5c25.3,0,45.8-20.6,45.8-45.8s-20.5-45.8-45.8-45.8Z"/>
  <path class="st0" d="M314.5,96.3h-47.3v91.6h47.3c25.3,0,45.8-20.5,45.8-45.8s-20.5-45.8-45.8-45.8Z"/>
  <path class="st0" d="M256,0C114.6,0,0,114.6,0,256s114.6,256,256,256,256-114.6,256-256S397.4,0,256,0ZM382.5,256c0,37.6-30.5,68.1-68.1,68.1h-1.5c-17.6,0-33.7-6.7-45.8-17.7v62.8c0,38-31.4,68.9-69.2,68.9s-68.5-30.5-68.5-68.1,12.3-44.8,30.8-57c-18.5-12.2-30.8-33.3-30.8-57s12.3-44.7,30.8-56.9c-18.5-12.2-30.8-19.5-30.8-57s30.5-68.1,68.1-68.1h116.9c37.6,0,68.1,30.5,68.1,68.1s-12.3,44.8-30.8,57c18.5,12.1,30.8,19.3,30.8,56.9Z"/>
</svg>