<?xml version="1.0" encoding="UTF-8"?>
<svg id="Capa_1" xmlns="http://www.w3.org/2000/svg" version="1.1" viewBox="0 0 512 512">
  <!-- Generator: Adobe Illustrator 29.1.0, SVG Export Plug-In . SVG Version: 2.1.0 Build 142)  -->
  <defs>
    <style>
      .st0 {
        fill: #ffd900;
      }
    </style>
  </defs>
  <polygon class="st0" points="129.8 208 173.2 256 129.8 304 129.8 208"/>
  <polygon class="st0" points="253.2 256 340.2 184.7 340.2 327.3 253.2 256"/>
  <path class="st0" d="M256,0C114.6,0,0,114.6,0,256s114.6,256,256,256,256-114.6,256-256S397.4,0,256,0ZM424.3,369c0,1,0,2-.2,3-1,6.9-5.3,12.9-11.7,15.9l-69.3,33.4c-7.8,3.8-17.1,2.3-23.5-3.6-.2-.1-.3-.3-.5-.4l-111.8-123.6-65.2,53.5-5.7,4.9c-4,3.4-9.6,4.3-14.5,2.3l-25.5-10.7c-5.2-2.2-8.6-7.2-8.6-12.9v-149.6c0-5.6,3.4-10.7,8.6-12.9l25.5-10.5c.2,0,.4-.2.7-.3,4.7-1.7,10-.7,13.9,2.5l5.7,4.7,65.2,53.5,111.8-123.6c.2-.1.3-.3.5-.4,6.3-5.9,15.6-7.4,23.4-3.6l69.3,33.4c6.1,3,10.4,8.7,11.6,15.2.2,1.2.3,2.5.3,3.7v226.1Z"/>
</svg>